<svg width="48" height="48" viewBox="0 0 48 48" fill="none" xmlns="http://www.w3.org/2000/svg">
<path d="M32 4L27.4 8.6C26.3007 9.72157 25.6849 11.2295 25.6849 12.8C25.6849 14.3705 26.3007 15.8784 27.4 17L31 20.6C32.1216 21.6994 33.6295 22.3151 35.2 22.3151C36.7705 22.3151 38.2784 21.6994 39.4 20.6L44 16" stroke="#F54900" stroke-width="4" stroke-linecap="round" stroke-linejoin="round"/>
<path d="M30 30L6.60002 6.59998C5.80178 7.38208 5.16763 8.31561 4.73471 9.34588C4.30179 10.3761 4.0788 11.4824 4.0788 12.6C4.0788 13.7175 4.30179 14.8238 4.73471 15.8541C5.16763 16.8843 5.80178 17.8179 6.60002 18.6L21.2 33.2C22.6 34.6 25.2 34.6 26.8 33.2L30 30ZM30 30L44 44" stroke="#F54900" stroke-width="4" stroke-linecap="round" stroke-linejoin="round"/>
<path d="M4.20001 43.6L17 31" stroke="#F54900" stroke-width="4" stroke-linecap="round" stroke-linejoin="round"/>
<path d="M38 10L24 24" stroke="#F54900" stroke-width="4" stroke-linecap="round" stroke-linejoin="round"/>
</svg>
