<svg width="285" height="291" viewBox="0 0 285 291" fill="none" xmlns="http://www.w3.org/2000/svg">
<path d="M99.4623 2.10032C118.137 -0.595055 150.562 13.1537 166.858 21.9558C207.956 44.4203 241.284 78.809 262.45 120.591C267.49 130.571 272.35 141.248 275.443 152.128C279.975 168.457 285.918 192.082 277.78 207.809C271.028 220.86 251.733 227.383 238.154 223.03C236.175 222.395 234.474 222.194 232.554 221.137C225.344 223.071 217.454 225.838 210.378 228.238C198.938 232.107 187.552 236.133 176.222 240.314C168.142 243.305 156.885 246.933 149.156 250.36C144.109 251.67 134.239 255.707 128.675 257.682C110.093 264.402 91.548 271.225 73.0413 278.15C62.4373 282.097 51.5855 286.695 40.3868 288.478C27.483 290.533 14.1462 285.485 7.39863 273.967C4.13973 268.292 2.63708 261.78 3.08078 255.253C3.55503 248.501 5.60838 241.13 7.34113 234.601C9.88086 225.033 12.9169 215.744 15.8401 206.292C26.8123 170.628 38.3803 135.15 50.5388 99.8723C54.3375 88.9465 58.2018 78.0438 62.1318 67.1645C63.6683 62.8913 66.4653 56.1745 67.5205 52.093C66.774 49.7588 65.8078 46.5053 65.6625 44.0095C65.0855 34.0925 69.342 21.0969 75.5335 13.5324C81.1495 6.67116 90.9158 2.86748 99.4623 2.10032ZM127.433 238.13C148.808 230.238 170.249 222.523 191.753 214.986C197.337 213.031 202.942 211.138 208.568 209.307C212.308 208.086 218.119 206.531 221.389 204.713C221.806 203.517 221.411 201.565 221.203 200.303C217.542 178.003 209.003 156.2 196.974 137.09C176.998 104.862 146.628 80.41 110.878 67.774C106.551 66.2758 88.0053 61.965 83.7183 62.2338C82.5785 63.4173 75.6855 83.5698 74.661 86.4808C60.2273 126.473 46.7808 166.815 34.3338 207.47C29.3643 223.722 23.1937 240.255 21.1146 257.105C20.7744 259.863 22.8625 264.592 24.9253 266.49C33.4153 274.305 47.7918 267.398 57.2753 264.015C64.7995 261.325 72.297 258.56 79.7668 255.723C93.7385 250.49 107.862 245.316 121.88 240.183C123.75 239.498 125.487 238.544 127.433 238.13ZM241.192 203.382C243.143 204.606 243.951 204.862 246.238 205.176C255.36 205.416 262.623 201.485 262.53 191.473C262.245 160.999 247.899 129.141 230.803 104.565C223.819 94.6538 216.058 85.3128 207.594 76.6305C185.738 54.0835 155.464 34.0308 125.162 25.1018C118.027 22.9994 111.824 21.3844 104.316 21.2735C103.439 21.2675 102.562 21.2912 101.686 21.3446C96.9598 21.9003 93.5723 22.2562 90.3038 26.306C88.0133 29.1443 83.4843 39.7078 85.9658 42.6683C88.1583 44.0025 92.843 44.036 95.4833 44.4705C152.088 53.7868 200.348 96.7255 224.54 147.667C230.329 160.083 234.867 173.044 238.088 186.358C239.197 190.923 240.49 198.686 241.192 203.382Z" fill="#FE4800"/>
<path d="M104.473 88.7673C119.052 87.3508 132.02 98.0175 133.442 112.596C134.865 127.174 124.204 140.146 109.626 141.575C95.0402 143.005 82.0579 132.336 80.6344 117.749C79.2109 103.162 89.8857 90.1843 104.473 88.7673ZM107.611 126.235C113.756 125.844 118.417 120.539 118.013 114.394C117.609 108.25 112.293 103.601 106.15 104.018C100.026 104.435 95.3944 109.73 95.7972 115.855C96.1999 121.981 101.485 126.624 107.611 126.235Z" fill="#FE4800"/>
<path d="M116.902 166.198C131.414 164.602 144.469 175.079 146.052 189.592C147.634 204.105 137.145 217.15 122.631 218.72C108.135 220.287 95.1104 209.815 93.5296 195.32C91.9486 180.826 102.41 167.792 116.902 166.198ZM119.875 203.563C126.053 203.526 131.026 198.481 130.975 192.304C130.923 186.127 125.865 181.166 119.689 181.233C113.533 181.3 108.593 186.336 108.645 192.491C108.696 198.646 113.72 203.599 119.875 203.563Z" fill="#FE4800"/>
<path d="M62.5938 210.676C73.7118 210.689 82.7395 219.664 82.8173 230.782C82.8948 241.899 73.9933 251 62.8768 251.167C51.6313 251.337 42.4022 242.311 42.3237 231.065C42.245 219.818 51.347 210.663 62.5938 210.676ZM64.8773 236.679C67.1885 235.921 68.7475 233.136 69.3965 230.925C67.7332 225.416 65.9473 224.402 60.4378 224.496C58.3215 225.708 56.807 227.048 56.124 229.5C55.165 232.943 57.8165 236.232 61.154 236.887C62.4105 237.136 63.65 236.838 64.8773 236.679Z" fill="#FE4800"/>
<path d="M177.144 166.331C181.851 166.119 185.801 167.063 189.929 169.341C195.753 172.62 200.064 178.046 201.942 184.461C203.668 190.54 202.393 194.931 195.865 196.694C187.363 196.194 189.726 187.045 184.377 182.755C179.576 178.905 167.378 181.235 170.417 170.603C171.222 167.785 174.415 166.672 177.144 166.331Z" fill="#FE4800"/>
<path d="M165.927 129.552C168.701 129.114 172.639 131.603 173.519 134.319C175.543 139.986 167.407 143.15 166.076 147.738C164.042 154.75 168.101 157.727 159.506 161.097C144.878 160.313 150.255 133.267 165.927 129.552Z" fill="#FE4800"/>
<path d="M65.8115 158.273C78.317 156.554 86.2082 184.201 72.6537 190.651C70.5032 191.199 69.4047 191.195 67.4112 190.106C60.825 186.509 66.2485 179.519 64.7627 173.999C63.6837 170.854 61.168 168.899 60.2552 165.576C59.139 161.513 61.942 159.206 65.8115 158.273Z" fill="#FE4800"/>
</svg>
